<?xml version="1.0" encoding="UTF-8"?>
<svg width="261px" height="78px" viewBox="0 0 261 78" version="1.1" xmlns="http://www.w3.org/2000/svg" xmlns:xlink="http://www.w3.org/1999/xlink">
    <!-- Generator: Sketch 56.2 (81672) - https://sketch.com -->
    <title>Group</title>
    <desc>Created with Sketch.</desc>
    <g id="Symbols" stroke="none" stroke-width="1" fill="none" fill-rule="evenodd">
        <g id="Logo">
            <g id="Group">
                <path d="M67.0465936,29.6943571 L67.0465936,20.9823237 L71.7262634,20.9823237 L71.7262634,18.8946501 C71.7262634,10.1105707 77.3425322,4.5663479 86.1981035,4.5663479 C89.9422828,4.5663479 92.6783711,5.57443878 95.197767,7.08685221 L92.3181407,15.0063787 C91.0218655,13.8541957 89.8702367,13.4224734 88.1422392,13.4224734 C85.1179666,13.4224734 83.6061074,15.510147 83.6061074,18.8946501 L83.6061074,20.9823237 L91.5256339,20.9823237 L91.5256339,29.6943571 L83.6061074,29.6943571 L83.6061074,57.4143624 L71.7262634,57.4143624 L71.7262634,29.6943571 L67.0465936,29.6943571 Z" id="Fill-1" fill="#534AB5"></path>
                <path d="M120.191937,32.4305008 C119.039199,31.9261783 117.383802,31.6385482 115.655251,31.6385482 C111.335257,31.6385482 107.735724,34.4461284 107.735724,40.6382116 L107.735724,57.4144178 L95.8558802,57.4144178 L95.8558802,20.9823791 L106.151819,20.9823791 L107.519586,29.2626902 C108.958845,23.070607 113.855761,19.1823356 120.767197,20.4065647 L120.191937,32.4305008 Z" id="Fill-3" fill="#534AB5"></path>
                <path d="M125.255945,57.4141962 L137.135789,57.4141962 L137.135789,20.9821575 L125.255945,20.9821575 L125.255945,57.4141962 Z M131.231335,17.0944403 C127.630694,17.0944403 124.318791,14.7906284 124.318791,10.7582649 C124.318791,6.65440948 127.630694,4.35059761 131.231335,4.35059761 C134.831423,4.35059761 138.143325,6.65440948 138.143325,10.7582649 C138.143325,14.7906284 134.831423,17.0944403 131.231335,17.0944403 L131.231335,17.0944403 Z" id="Fill-5" fill="#534AB5"></path>
                <path d="M168.335176,36.3182734 C168.335176,31.2063271 165.238303,28.7584231 162.071047,28.7584231 C157.750499,28.7584231 155.159611,32.357956 155.159611,39.5581301 C155.159611,45.7502133 157.750499,49.0626703 161.854909,49.0626703 C165.38295,49.0626703 168.335176,46.326582 168.335176,40.6382671 L168.335176,36.3182734 Z M168.62336,50.7180675 C167.110947,55.6859216 162.863554,58.278472 157.607515,58.278472 C149.471296,58.278472 142.991029,51.5820662 142.991029,39.9898524 C142.991029,27.2465639 149.182558,20.1184358 158.326868,20.1184358 C163.438814,20.1184358 167.039455,22.3502016 168.335176,25.6621044 L168.335176,5.43045747 L180.286512,5.43045747 L180.286512,57.4144733 L169.990573,57.4144733 L168.62336,50.7180675 Z" id="Fill-7" fill="#534AB5"></path>
                <path d="M206.753581,42.2943293 C206.10572,42.2222832 205.17023,42.1502371 204.234185,42.1502371 C199.481915,42.1502371 197.034011,43.6620963 197.034011,46.6143229 C197.034011,48.9181348 198.617362,50.4305482 201.35345,50.4305482 C204.018046,50.4305482 206.753581,48.8466429 206.753581,44.454049 L206.753581,42.2943293 Z M218.201148,46.8304611 C218.201148,48.7025508 219.209793,49.4224573 220.505514,49.4224573 C221.296913,49.4224573 221.945327,49.134273 222.521696,48.6305047 L222.953418,56.3338929 C221.296913,57.486076 218.849009,58.1344907 216.401659,58.1344907 C213.089756,58.1344907 210.49776,56.9102616 208.9133,54.8220337 C208.336932,54.1747274 207.97781,53.3822206 207.689071,52.4461758 C206.177212,55.9742168 202.001311,58.1344907 197.177549,58.1344907 C190.337605,58.1344907 185.657935,54.2462193 185.657935,47.5503677 C185.657935,40.2781475 191.920956,36.2463382 202.216895,36.2463382 C203.657816,36.2463382 205.529906,36.3904303 206.753581,36.4624764 L206.753581,32.7903433 C206.753581,30.126301 205.385814,28.5423957 202.649171,28.5423957 C199.842145,28.5423957 198.330286,30.3424392 198.330286,33.438758 L187.457979,31.9263445 C188.105839,24.6541243 193.938246,20.1185467 203.154048,20.1185467 C213.521478,20.1185467 218.201148,24.6541243 218.201148,32.3580668 L218.201148,46.8304611 Z" id="Fill-8" fill="#534AB5"></path>
                <path d="M248.685561,20.98249 L260.060529,20.98249 L246.957564,58.3500193 C243.430077,68.4303739 238.677253,72.5342293 230.757172,72.5342293 C227.301177,72.5342293 224.421551,71.5261384 222.693554,70.4465557 L224.924765,61.8780603 C226.22104,62.8861512 227.588807,63.5345659 229.389959,63.5345659 C231.909355,63.5345659 233.276568,62.3823828 234.645444,58.4220654 L221.612862,20.98249 L233.924983,20.98249 L241.053665,45.6782227 L241.196649,45.6782227 L248.685561,20.98249 Z" id="Fill-9" fill="#534AB5"></path>
                <g id="Group-2" transform="translate(0.155378, 0.281897)">
                    <path d="M25.8734644,-1.42108547e-14 L25.8734644,25.873409 L5.54200597e-05,25.873409 C5.54200597e-05,11.5839008 11.5839563,-1.42108547e-14 25.8734644,-1.42108547e-14" id="Fill-10" fill="#F06F43"></path>
                    <path d="M25.8734644,25.8734644 L25.8734644,5.54200592e-05 L51.7468734,5.54200592e-05 C51.7468734,14.2895636 40.1629725,25.8734644 25.8734644,25.8734644" id="Fill-11" fill="#534AB5"></path>
                    <path d="M25.8734644,25.8734644 L25.8734644,51.7468734 L5.54200597e-05,51.7468734 C5.54200597e-05,37.4573652 11.5839563,25.8734644 25.8734644,25.8734644" id="Fill-12" fill="#534AB5"></path>
                    <path d="M25.8734644,51.7468734 L25.8734644,25.8734644 L51.7468734,25.8734644 C51.7468734,40.1629725 40.1629725,51.7468734 25.8734644,51.7468734" id="Fill-13" fill="#5FB7FF"></path>
                    <path d="M1.3500312e-13,77.6202823 L1.3500312e-13,51.7468734 L25.873409,51.7468734 C25.873409,66.0363815 14.2895081,77.6202823 1.3500312e-13,77.6202823" id="Fill-14" fill="#5FB7FF"></path>
                </g>
            </g>
        </g>
    </g>
</svg>