<svg width="24" height="24" viewBox="0 0 24 24" fill="none" xmlns="http://www.w3.org/2000/svg">
<path d="M0 3C0 2.60218 0.158035 2.22064 0.43934 1.93934C0.720644 1.65804 1.10218 1.5 1.5 1.5H22.5C22.8978 1.5 23.2794 1.65804 23.5607 1.93934C23.842 2.22064 24 2.60218 24 3V6C24 6.39782 23.842 6.77936 23.5607 7.06066C23.2794 7.34196 22.8978 7.5 22.5 7.5V18.75C22.5 19.7446 22.1049 20.6984 21.4016 21.4016C20.6984 22.1049 19.7446 22.5 18.75 22.5H5.25C4.25544 22.5 3.30161 22.1049 2.59835 21.4016C1.89509 20.6984 1.5 19.7446 1.5 18.75V7.5C1.10218 7.5 0.720644 7.34196 0.43934 7.06066C0.158035 6.77936 0 6.39782 0 6V3ZM3 7.5V18.75C3 19.3467 3.23705 19.919 3.65901 20.341C4.08097 20.7629 4.65326 21 5.25 21H18.75C19.3467 21 19.919 20.7629 20.341 20.341C20.7629 19.919 21 19.3467 21 18.75V7.5H3ZM22.5 3H1.5V6H22.5V3ZM7.5 11.25C7.5 11.0511 7.57902 10.8603 7.71967 10.7197C7.86032 10.579 8.05109 10.5 8.25 10.5H15.75C15.9489 10.5 16.1397 10.579 16.2803 10.7197C16.421 10.8603 16.5 11.0511 16.5 11.25C16.5 11.4489 16.421 11.6397 16.2803 11.7803C16.1397 11.921 15.9489 12 15.75 12H8.25C8.05109 12 7.86032 11.921 7.71967 11.7803C7.57902 11.6397 7.5 11.4489 7.5 11.25Z" fill="black"/>
</svg>
